#!OML:ASF F:\VICON\USERDATA\Patient Classification 1\PLAYGROUND\JustinFriday\JustinFriday.ASF
:FULLY-SPECIFIED
:DEGREES
2819
root -13.2659 30.2681 -9.10644 239.807 82.174 -154.888
lowerback 22.9306 -0.720116 0.593141
upperback 7.83983 -0.0224787 2.59658
thorax -4.19954 0.207797 2.4469
lowerneck 11.2715 -24.5879 -13.3
upperneck -30.1944 -30.72 35.93
head -2.31418 -17.8553 12.9825
rclavicle 2.18663e-015 -1.91827e-014
rhumerus -9.76827 21.1474 -78.9058
rradius 64.9893
rwrist 21.4614
rhand -39.0728 -347.595
rfingers 7.12502
rthumb -12.0739 -377.227
lclavicle 2.18663e-015 -1.91827e-014
lhumerus -6.36264 -28.4126 78.1385
lradius 65.1102
lwrist -30.0286
lhand -25.4084 -23.3455
lfingers 7.12502
lthumb 1.11713 6.63131
rfemur -28.1402 -3.29283 29.452
rtibia 30.0055
rfoot -38.0077 -7.81474
rtoes 6.93291
lfemur -31.1885 -1.28161 -13.7747
ltibia 32.7998
lfoot -37.3544 2.53277
ltoes -7.15559
2820
root -13.2474 30.2626 -9.10172 239.467 82.548 -155.19
lowerback 22.8533 -0.600056 -0.0701953
upperback 7.92018 -0.00963555 2.61953
thorax -4.06991 0.207644 2.84715
lowerneck 11.3861 -24.3758 -13.5133
upperneck -30.267 -30.3956 36.3449
head -2.28984 -17.7473 13.2
rclavicle -1.27222e-014 3.54831e-014
rhumerus -9.5699 21.2771 -78.8049
rradius 64.7906
rwrist 21.4605
rhand -39.0825 -347.387
rfingers 7.12502
rthumb -12.0832 -377.018
lclavicle -1.27222e-014 3.54831e-014
lhumerus -6.10955 -27.4246 78.6503
lradius 64.2043
lwrist -30.8512
lhand -25.4059 -24.3466
lfingers 7.12502
lthumb 1.11954 5.63022
rfemur -28.024 -2.95254 29.0447
rtibia 30.0519
rfoot -38.1726 -7.73445
rtoes 7.61574
lfemur -30.9776 -1.29169 -14.1103
ltibia 32.7233
lfoot -37.6218 2.40398
ltoes -6.24735
2821
root -13.2337 30.253 -9.10726 241.043 82.7415 -153.624
lowerback 22.7172 -0.475245 -0.236993
upperback 8.01657 0.11845 2.67357
thorax -3.9026 0.267051 2.96662
lowerneck 11.4784 -24.1699 -14.1305
upperneck -30.1695 -30.1143 37.3627
head -1.9928 -17.7047 13.5512
rclavicle -1.44119e-014 -4.10987e-014
rhumerus -9.50692 21.8606 -78.1247
rradius 65.7495
rwrist 21.7333
rhand -38.6913 -352.56
rfingers 7.12502
rthumb -11.706 -382.213
lclavicle -1.44119e-014 -4.10987e-014
lhumerus -5.84324 -27.2219 78.7508
lradius 63.7733
lwrist -30.9213
lhand -25.3921 -24.7102
lfingers 7.12502
lthumb 1.13291 5.26656
rfemur -27.9637 -2.42114 28.8968
rtibia 30.0576
rfoot -38.3134 -7.35372
rtoes 9.13364
lfemur -30.8765 -0.699607 -14.2802
ltibia 32.651
lfoot -37.9014 2.09465
ltoes -5.98639
2822
root -13.2176 30.2395 -9.1106 243.671 82.59 -150.927
lowerback 22.575 -0.449851 -0.749971
upperback 8.16755 0.0822377 3.13475
thorax -3.66028 0.239382 3.76765
lowerneck 11.533 -23.7293 -14.7161
upperneck -30.1447 -29.4859 38.2347
head -1.83025 -17.4756 13.9769
rclavicle 1.88845e-014 -3.08116e-015
rhumerus -9.34425 23.6139 -76.0435
rradius 66.7151
rwrist 19.5307
rhand -38.8288 -351.053
rfingers 7.12502
rthumb -11.8386 -380.698
lclavicle 1.88845e-014 -3.08116e-015
lhumerus -6.07258 -26.4845 78.9683
lradius 63.9043
lwrist -30.6034
lhand -25.1434 -25.1172
lfingers 7.12502
lthumb 1.37305 4.85813
rfemur -27.7726 -1.75237 29.1221
rtibia 30.0264
rfoot -38.5042 -7.46117
rtoes 9.9947
lfemur -30.707 -0.0905371 -14.0549
ltibia 32.5897
lfoot -38.1469 2.1872
ltoes -7.19297
2823
root -13.2014 30.2277 -9.1181 245.592 82.3626 -148.823
lowerback 22.6864 -0.487225 -0.900701
upperback 8.23594 0.0336419 3.43944
thorax -3.63509 0.213156 4.19892
lowerneck 11.6857 -23.3833 -14.8037
upperneck -30.1933 -29.042 37.8788
head -2.03924 -17.2166 14.0481
rclavicle -3.51849e-014 1.23246e-014
rhumerus -9.28698 24.3892 -75.5435
rradius 66.9304
rwrist 19.1159
rhand -38.9344 -350.831
rfingers 7.12502
rthumb -11.9404 -380.47
lclavicle -3.51849e-014 1.23246e-014
lhumerus -6.61715 -26.3302 79.0386
lradius 64.4138
lwrist -30.1184
lhand -24.9719 -25.2127
lfingers 7.12502
lthumb 1.53868 4.76152
rfemur -27.3935 -1.23141 29.3712
rtibia 29.894
rfoot -38.9012 -6.6947
rtoes 12.7788
lfemur -30.3594 -0.795939 -13.5027
ltibia 32.5782
lfoot -38.3895 3.20551
ltoes -8.14855
2824
root -13.1895 30.2179 -9.12964 246.961 82.3854 -147.298
lowerback 23.0745 -0.418971 -0.681868
upperback 8.07734 0.16998 3.46833
thorax -4.0143 0.285962 4.07605
lowerneck 11.9206 -23.5847 -14.0815
upperneck -30.5768 -29.3037 36.6582
head -2.53434 -17.2593 13.718
rclavicle 6.7388e-014 2.26615e-014
rhumerus -9.72897 24.4345 -75.4383
rradius 67.1002
rwrist 19.0869
rhand -38.9473 -351.104
rfingers 7.12502
rthumb -11.9529 -380.743
lclavicle 6.7388e-014 2.26615e-014
lhumerus -7.46903 -27.8037 78.8675
lradius 65.3172
lwrist -29.3685
lhand -25.5575 -23.8844
lfingers 7.12502
lthumb 0.973087 6.09314
rfemur -26.9821 -0.716903 29.3296
rtibia 29.5709
rfoot -38.9947 -6.34956
rtoes 14.346
lfemur -30.0619 -1.50652 -13.2229
ltibia 32.6517
lfoot -38.6901 3.74775
ltoes -8.03538
2825
root -13.172 30.2137 -9.1451 250.092 82.3019 -144.115
lowerback 22.9291 -0.30077 0.322637
upperback 8.20723 0.516303 3.18079
thorax -3.82432 0.467671 3.09422
lowerneck 12.1302 -23.8442 -13.483
upperneck -31.1418 -29.4831 36.7415
head -2.78024 -17.4333 13.772
rclavicle -2.29596e-014 -4.05521e-014
rhumerus -9.82101 23.5129 -75.6203
rradius 67.0966
rwrist 19.1515
rhand -39.0288 -350.895
rfingers 7.12502
rthumb -12.0314 -380.529
lclavicle -2.29596e-014 -4.05521e-014
lhumerus -6.53613 -27.1806 79.3418
lradius 64.0028
lwrist -31.1501
lhand -25.8081 -24.4798
lfingers 7.12502
lthumb 0.731111 5.49865
rfemur -26.6967 -0.142618 29.5042
rtibia 29.3299
rfoot -38.8646 -7.14572
rtoes 12.851
lfemur -29.8935 -1.28104 -12.9158
ltibia 32.7875
lfoot -39.0241 2.89956
ltoes -5.97936
2826
root -13.1556 30.209 -9.15979 253.888 81.7257 -140.322
lowerback 22.7491 -0.366866 0.314141
upperback 8.24112 0.462419 3.67056
thorax -3.69649 0.43655 3.6429
lowerneck 12.5891 -23.2161 -14.0443
upperneck -31.1531 -28.6361 37.2979
head -2.82635 -17.0864 14.2492
rclavicle 1.22253e-014 1.84373e-014
rhumerus -9.6998 24.5566 -75.3772
rradius 67.133
rwrist 18.8301
rhand -39.3996 -350.618
rfingers 7.12502
rthumb -12.389 -380.231
lclavicle 1.22253e-014 1.84373e-014
lhumerus -7.203 -26.183 79.7313
lradius 64.2783
lwrist -31.5268
lhand -25.8882 -24.667
lfingers 7.12502
lthumb 0.653699 5.31179
rfemur -26.211 7.26329 28.8022
rtibia 29.2141
rfoot -39.93 -13.9833
rtoes 12.861
lfemur -29.8505 -0.796404 -12.1801
ltibia 32.9153
lfoot -39.2256 2.65744
ltoes -5.59582
2827
root -13.1448 30.1887 -9.1672 255.512 81.3557 -138.679
lowerback 22.6887 -0.357075 1.63469
upperback 8.20942 0.718705 3.25833
thorax -3.70354 0.580289 2.37423
lowerneck 13.2942 -23.2209 -13.8244
upperneck -31.4237 -28.5006 38.0639
head -2.91989 -17.2066 14.6446
rclavicle 9.14409e-015 1.1778e-014
rhumerus -10.5818 23.2682 -76.1325
rradius 67.5112
rwrist 19.4249
rhand -39.1205 -350.592
rfingers 7.12502
rthumb -12.1199 -380.221
lclavicle 9.14409e-015 1.1778e-014
lhumerus -7.19397 -27.5324 79.1522
lradius 64.5258
lwrist -31.2589
lhand -26.1517 -24.6787
lfingers 7.12502
lthumb 0.399197 5.30071
rfemur -26.4398 0.919517 30.5804
rtibia 29.3502
rfoot -38.923 -9.90677
rtoes 8.0421
lfemur -29.844 0.702005 -12.0866
ltibia 32.8887
lfoot -39.2397 3.02104
ltoes -9.39578
2828
root -13.1417 30.1734 -9.16698 254.872 81.7197 -139.196
lowerback 22.6415 -0.276319 0.830319
upperback 8.38494 0.671954 3.43261
thorax -3.49484 0.549325 3.03468
lowerneck 13.527 -22.8893 -14.1631
upperneck -31.4816 -28.1364 37.8951
head -3.04059 -16.9914 14.7684
rclavicle -1.14301e-014 5.26779e-015
rhumerus -10.2433 23.7845 -75.475
rradius 67.6787
rwrist 19.2147
rhand -39.0735 -350.831
rfingers 7.12502
rthumb -12.0745 -380.463
lclavicle -1.14301e-014 5.26779e-015
lhumerus -7.42847 -27.9121 79.017
lradius 65.4283
lwrist -30.6508
lhand -26.3008 -24.0789
lfingers 7.12502
lthumb 0.255179 5.9007
rfemur -26.3706 1.11367 30.1551
rtibia 29.5832
rfoot -38.8599 -10.9303
rtoes 6.18036
lfemur -29.6709 2.28611 -12.8921
ltibia 32.6731
lfoot -39.3 2.70325
ltoes -11.9226
